<svg xmlns="http://www.w3.org/2000/svg" xmlns:xlink="http://www.w3.org/1999/xlink" id="svg66" width="1749.137" height="535.023" version="1.1"><defs id="defs1"><linearGradient id="swatch14"><stop id="stop14" offset="0" style="stop-color:#bec128;stop-opacity:1"/></linearGradient><linearGradient id="swatch19"><stop id="stop19" offset="0" style="stop-color:#056734;stop-opacity:1"/></linearGradient><linearGradient id="swatch18"><stop id="stop18" offset="0" style="stop-color:#31ad68;stop-opacity:1"/></linearGradient><linearGradient xlink:href="#swatch19" id="linearGradient19-4" x1="7.5" x2="332.563" y1="193.035" y2="193.035" gradientTransform="matrix(1.3732 0 0 1.3732 144.407 -8.039)" gradientUnits="userSpaceOnUse"/><linearGradient xlink:href="#swatch18" id="linearGradient18-8" x1="21.5" x2="319.5" y1="192.795" y2="192.795" gradientUnits="userSpaceOnUse"/><linearGradient xlink:href="#swatch19" id="linearGradient20-4" x1="63.531" x2="285.696" y1="197.266" y2="197.266" gradientUnits="userSpaceOnUse"/><linearGradient xlink:href="#swatch14" id="linearGradient42" x1="44.979" x2="82.024" y1="210.562" y2="210.562" gradientTransform="matrix(1.3732 0 0 1.3732 154.72 -1.165)" gradientUnits="userSpaceOnUse"/><linearGradient xlink:href="#swatch18" id="linearGradient43" x1="21.5" x2="319.5" y1="192.795" y2="192.795" gradientTransform="matrix(1.3732 0 0 1.3732 144.407 -8.039)" gradientUnits="userSpaceOnUse"/><linearGradient xlink:href="#swatch19" id="linearGradient44" x1="63.531" x2="285.696" y1="197.266" y2="197.266" gradientTransform="matrix(1.3732 0 0 1.3732 144.407 -8.039)" gradientUnits="userSpaceOnUse"/><style id="style1">.cls-1{fill:#393234}.cls-2{fill:#585857}.cls-3{fill:#982f15}.cls-4{fill:#009777}.cls-5{fill:#eb6132}</style></defs><path id="rect3" d="M804.545 367.587h934.848v5.515H804.545Z" class="cls-1" style="stroke-width:1.199"/><path id="path4" d="M828.789 460.749a24.855 24.855 0 0 1-12.89-3.237 21.33 21.33 0 0 1-8.392-9.185 31.51 31.51 0 0 1-2.938-14.064v-34.855h6.643v34.855a25.023 25.023 0 0 0 2.158 10.791 16.594 16.594 0 0 0 6.127 7.122 18.369 18.369 0 0 0 18.644 0 16.642 16.642 0 0 0 6.115-7.122 25.023 25.023 0 0 0 2.158-10.791v-34.855h6.643v34.855a31.51 31.51 0 0 1-2.926 14.064 21.45 21.45 0 0 1-8.393 9.185 24.831 24.831 0 0 1-12.95 3.237z" class="cls-1" style="stroke-width:1.199"/><path id="path5" d="M869.435 459.802v-42.11h6.307v6.823a16.15 16.15 0 0 1 5.779-5.66 15.467 15.467 0 0 1 7.59-1.858 15.85 15.85 0 0 1 7.973 1.967 13.98 13.98 0 0 1 5.347 5.443 16.498 16.498 0 0 1 1.943 8.153v27.266h-6.295v-25.48a12.314 12.314 0 0 0-3.07-8.848 10.791 10.791 0 0 0-8.236-3.225 12.386 12.386 0 0 0-6.295 1.63 13.189 13.189 0 0 0-4.796 4.797v31.066z" class="cls-1" style="stroke-width:1.199"/><path id="path6" d="M923.618 407.25a4.412 4.412 0 0 1-3.238-1.331 4.364 4.364 0 0 1 0-6.295 4.568 4.568 0 0 1 6.475 0 4.388 4.388 0 0 1 0 6.295 4.448 4.448 0 0 1-3.237 1.33zm-3.202 52.552v-42.11h6.307v42.11z" class="cls-1" style="stroke-width:1.199"/><path id="path7" d="m955.187 459.802-17.253-42.11h6.822l13.633 34.256 13.453-34.255h6.738l-17.35 42.109z" class="cls-1" style="stroke-width:1.199"/><path id="path8" d="M1007.476 460.665a20.083 20.083 0 0 1-10.611-2.89 20.994 20.994 0 0 1-7.506-7.853 22.541 22.541 0 0 1-2.758-11.175 23.249 23.249 0 0 1 2.626-11.126 20.383 20.383 0 0 1 7.122-7.77 18.465 18.465 0 0 1 10.096-2.854 17.985 17.985 0 0 1 9.88 2.806 20.06 20.06 0 0 1 6.894 7.554 22.781 22.781 0 0 1 2.542 10.79v1.895h-33.033a17.53 17.53 0 0 0 2.398 7.722 14.748 14.748 0 0 0 5.348 5.347 14.148 14.148 0 0 0 7.29 1.943 17.685 17.685 0 0 0 6.342-1.2 15.97 15.97 0 0 0 5.216-3.153l3.897 4.353a26.642 26.642 0 0 1-7.506 4.232 24.771 24.771 0 0 1-8.237 1.379zm-14.58-25.023h26.726a16.067 16.067 0 0 0-2.29-6.775 14.208 14.208 0 0 0-4.665-4.7 11.666 11.666 0 0 0-6.246-1.726 12.254 12.254 0 0 0-6.307 1.678 13.765 13.765 0 0 0-4.7 4.665 18.129 18.129 0 0 0-2.518 6.858z" class="cls-1" style="stroke-width:1.199"/><path id="path9" d="M1040.005 459.802v-42.11h6.294v8.634a15.335 15.335 0 0 1 4.712-6.859 10.875 10.875 0 0 1 7.027-2.47 15.887 15.887 0 0 1 2.074.132 9.148 9.148 0 0 1 1.894.48v5.695a16.786 16.786 0 0 0-2.194-.563 12.146 12.146 0 0 0-2.206-.216 10.791 10.791 0 0 0-6.774 2.242 14.712 14.712 0 0 0-4.533 6.307v28.776z" class="cls-1" style="stroke-width:1.199"/><path id="path10" d="M1086.43 460.665a28.08 28.08 0 0 1-9.592-1.595 20.779 20.779 0 0 1-7.506-4.616l3.357-4.148a32.253 32.253 0 0 0 6.99 4.016 17.985 17.985 0 0 0 6.56 1.2 12.71 12.71 0 0 0 7.589-2.159 6.523 6.523 0 0 0 3.021-5.515 4.976 4.976 0 0 0-1.762-4.053 13.189 13.189 0 0 0-5.827-2.254l-6.907-1.2c-4.076-.754-7.086-2.013-9.016-3.8a9.424 9.424 0 0 1-2.89-7.194 10.791 10.791 0 0 1 1.943-6.39 13.189 13.189 0 0 1 5.395-4.353 18.453 18.453 0 0 1 7.854-1.607 26.306 26.306 0 0 1 8.189 1.2 29.4 29.4 0 0 1 7.853 4.016l-3.105 4.388a24.711 24.711 0 0 0-6.559-3.405 21.114 21.114 0 0 0-6.642-1.079 11.15 11.15 0 0 0-6.643 1.81 5.78 5.78 0 0 0-2.505 4.928 4.976 4.976 0 0 0 1.606 3.97 11.99 11.99 0 0 0 5.647 2.061l7.075 1.295q6.39 1.14 9.316 3.885a9.724 9.724 0 0 1 2.937 7.422 11.15 11.15 0 0 1-2.158 6.69 14.82 14.82 0 0 1-5.863 4.7 19.64 19.64 0 0 1-8.357 1.787z" class="cls-1" style="stroke-width:1.199"/><path id="path11" d="M1118.959 407.25a4.412 4.412 0 0 1-3.237-1.331 4.364 4.364 0 0 1 0-6.295 4.556 4.556 0 0 1 6.462 0 4.364 4.364 0 0 1 0 6.295 4.4 4.4 0 0 1-3.225 1.33zm-3.201 52.552v-42.11h6.306v42.11z" class="cls-1" style="stroke-width:1.199"/><path id="path12" d="M1155.972 460.401a17.517 17.517 0 0 1-9.844-2.89 20.767 20.767 0 0 1-6.99-7.769 24.256 24.256 0 0 1 0-21.906 20.79 20.79 0 0 1 7.122-7.77 17.985 17.985 0 0 1 10-2.889 17.505 17.505 0 0 1 7.194 1.511 17.038 17.038 0 0 1 5.863 4.352v-25.538l6.295-1.295v63.547h-6.295v-5.612a16.03 16.03 0 0 1-5.863 4.617 17.817 17.817 0 0 1-7.482 1.642zm1.535-5.467a15.73 15.73 0 0 0 6.822-1.475 13.189 13.189 0 0 0 5.084-4.137v-20.934a14.388 14.388 0 0 0-5.216-4.185 15.431 15.431 0 0 0-6.69-1.51 14.016 14.016 0 0 0-7.554 2.074 14.772 14.772 0 0 0-5.252 5.695 18.537 18.537 0 0 0 0 16.522 14.94 14.94 0 0 0 5.252 5.78 13.74 13.74 0 0 0 7.554 2.17z" class="cls-1" style="stroke-width:1.199"/><path id="path13" d="M1205.143 460.581a18.345 18.345 0 0 1-7.937-1.643 13.057 13.057 0 0 1-5.396-4.532 11.702 11.702 0 0 1-1.93-6.666 11.15 11.15 0 0 1 1.99-6.595 12.985 12.985 0 0 1 5.527-4.364 20.49 20.49 0 0 1 8.273-1.547 29.316 29.316 0 0 1 6.859.78 20.095 20.095 0 0 1 5.995 2.493v-5.779q0-5.18-2.77-7.805c-1.834-1.75-4.544-2.626-8.105-2.626a22.47 22.47 0 0 0-5.995.851 37.613 37.613 0 0 0-6.775 2.77l-2.326-4.796a36.785 36.785 0 0 1 15.875-4.065q7.842 0 12.074 3.85 4.233 3.848 4.233 10.994v27.96h-6.211v-4.927a18.704 18.704 0 0 1-6.127 4.268 18.465 18.465 0 0 1-7.254 1.379zm-9.232-13.033a7.194 7.194 0 0 0 2.89 5.995 12.11 12.11 0 0 0 7.637 2.254 17.146 17.146 0 0 0 6.51-1.199 18.165 18.165 0 0 0 5.576-3.597v-8.117a22.205 22.205 0 0 0-5.528-2.29 26.054 26.054 0 0 0-6.378-.732 12.961 12.961 0 0 0-7.77 2.123 6.618 6.618 0 0 0-2.973 5.563z" class="cls-1" style="stroke-width:1.199"/><path id="path14" d="M1258.463 460.401a17.505 17.505 0 0 1-9.832-2.89 20.67 20.67 0 0 1-6.99-7.769 24.256 24.256 0 0 1 0-21.906 20.863 20.863 0 0 1 7.11-7.77 18.093 18.093 0 0 1 10.011-2.889 17.505 17.505 0 0 1 7.194 1.511 17.038 17.038 0 0 1 5.863 4.352v-25.538l6.295-1.295v63.547h-6.295v-5.612a16.127 16.127 0 0 1-5.863 4.617 17.841 17.841 0 0 1-7.493 1.642zm1.558-5.515a15.587 15.587 0 0 0 6.81-1.475 13.189 13.189 0 0 0 5.096-4.137v-20.886a14.388 14.388 0 0 0-5.215-4.185 15.48 15.48 0 0 0-6.69-1.51 14.016 14.016 0 0 0-7.554 2.074 14.892 14.892 0 0 0-5.264 5.695 18.537 18.537 0 0 0 0 16.522 15.06 15.06 0 0 0 5.264 5.78 13.74 13.74 0 0 0 7.553 2.17z" class="cls-1" style="stroke-width:1.199"/><path id="path15" d="M1335.69 460.401a17.517 17.517 0 0 1-9.844-2.89 20.767 20.767 0 0 1-6.99-7.769 24.352 24.352 0 0 1 0-21.906 20.79 20.79 0 0 1 7.122-7.77 17.985 17.985 0 0 1 10-2.889 17.505 17.505 0 0 1 7.194 1.511 17.038 17.038 0 0 1 5.863 4.352v-25.538l6.307-1.295v63.547h-6.307v-5.612a16.03 16.03 0 0 1-5.863 4.617 17.817 17.817 0 0 1-7.482 1.642zm1.547-5.515a15.73 15.73 0 0 0 6.822-1.475 13.189 13.189 0 0 0 5.084-4.137v-20.886a14.388 14.388 0 0 0-5.216-4.185 15.431 15.431 0 0 0-6.69-1.51 13.944 13.944 0 0 0-7.542 2.074 14.808 14.808 0 0 0-5.263 5.695 18.537 18.537 0 0 0 0 16.522 14.964 14.964 0 0 0 5.263 5.78 13.68 13.68 0 0 0 7.542 2.17z" class="cls-1" style="stroke-width:1.199"/><path id="path16" d="M1390.82 460.665a20.083 20.083 0 0 1-10.611-2.89 20.899 20.899 0 0 1-7.506-7.853 22.553 22.553 0 0 1-2.77-11.175 23.249 23.249 0 0 1 2.638-11.126 20.263 20.263 0 0 1 7.122-7.77 18.465 18.465 0 0 1 10.096-2.854 17.985 17.985 0 0 1 9.88 2.806 19.927 19.927 0 0 1 6.894 7.602 22.625 22.625 0 0 1 2.554 10.79v1.895h-33.057a17.853 17.853 0 0 0 2.398 7.722 14.88 14.88 0 0 0 5.36 5.347 14.148 14.148 0 0 0 7.29 1.943 17.577 17.577 0 0 0 6.33-1.2 15.899 15.899 0 0 0 5.228-3.153l3.969 4.233a26.81 26.81 0 0 1-7.506 4.232 24.771 24.771 0 0 1-8.309 1.451zm-14.58-25.023h26.654a16.055 16.055 0 0 0-2.278-6.775 14.388 14.388 0 0 0-4.664-4.7 11.702 11.702 0 0 0-6.259-1.726 12.182 12.182 0 0 0-6.295 1.678 13.765 13.765 0 0 0-4.7 4.665 17.985 17.985 0 0 0-2.458 6.858z" class="cls-1" style="stroke-width:1.199"/><path id="path17" d="M1445.602 459.802v-60.394h13.98l26.834 36.582-.251-36.582h13.968v60.394h-13.105l-27.697-37.793.252 37.793z" class="cls-1" style="stroke-width:1.199"/><path id="path18" d="M1528.178 460.485a17.841 17.841 0 0 1-7.986-1.726 13.189 13.189 0 0 1-5.431-4.796 12.637 12.637 0 0 1-1.943-6.99 11.798 11.798 0 0 1 2.075-7.039 12.865 12.865 0 0 1 5.995-4.4 25.743 25.743 0 0 1 9.328-1.51 26.762 26.762 0 0 1 4.916.479 32.037 32.037 0 0 1 5.431 1.594V432.5a5.683 5.683 0 0 0-2.158-4.88 11.247 11.247 0 0 0-6.642-1.594 24.58 24.58 0 0 0-5.564.731 45.982 45.982 0 0 0-6.942 2.398l-4.796-9.748a49.986 49.986 0 0 1 20.383-4.796q9.22 0 14.388 4.4 5.168 4.401 5.144 12.338v28.477h-13.813v-3.885a20.18 20.18 0 0 1-5.863 3.489 18.62 18.62 0 0 1-6.522 1.055zm-2.506-13.716a3.729 3.729 0 0 0 1.822 3.32 9.124 9.124 0 0 0 5 1.2 15.48 15.48 0 0 0 4.22-.552 14.928 14.928 0 0 0 3.801-1.69v-5.696a38.043 38.043 0 0 0-3.8-.683 27.397 27.397 0 0 0-3.873-.264 10.263 10.263 0 0 0-5.312 1.127 3.597 3.597 0 0 0-1.858 3.238z" class="cls-1" style="stroke-width:1.199"/><path id="path19" d="M1568.296 459.802v-44.52h13.98v10.096a21.234 21.234 0 0 1 5.132-8.285 10.072 10.072 0 0 1 6.942-2.673 20.467 20.467 0 0 1 2.398.251 8.273 8.273 0 0 1 2.242.864v11.99a11.043 11.043 0 0 0-3.021-1.032 18.14 18.14 0 0 0-3.597-.347 11.558 11.558 0 0 0-5.78 1.51 13.093 13.093 0 0 0-4.4 4.017v28.129z" class="cls-1" style="stroke-width:1.199"/><path id="path20" d="M1616.88 408.46a7.95 7.95 0 0 1-7.854-7.853 7.482 7.482 0 0 1 2.326-5.563 7.842 7.842 0 0 1 11.09 11.09 7.53 7.53 0 0 1-5.562 2.327zm-6.99 51.342v-44.52h14.028v44.52z" class="cls-1" style="stroke-width:1.199"/><path id="path21" d="M1638.186 459.802v-44.52h13.98v7.195a18.273 18.273 0 0 1 6.163-5.911 15.85 15.85 0 0 1 7.901-2.027 14.856 14.856 0 0 1 7.638 1.943 14.052 14.052 0 0 1 5.216 5.347 16.055 16.055 0 0 1 1.894 7.902v29.975h-13.98V433.83a8.669 8.669 0 0 0-2.027-5.995 6.87 6.87 0 0 0-5.383-2.242 9.268 9.268 0 0 0-4.1.9 9.592 9.592 0 0 0-3.322 2.805v30.55zm10.91-50.91-7.769-1.81a20.815 20.815 0 0 1 4.233-9.185 8.86 8.86 0 0 1 6.894-3.07 10.48 10.48 0 0 1 5.036 1.356q2.398 1.295 4.532 2.59a7.302 7.302 0 0 0 3.597 1.294 2.482 2.482 0 0 0 2.122-1.199 17.386 17.386 0 0 0 1.679-4.532l7.77 1.81a22.361 22.361 0 0 1-4.101 9.15 8.321 8.321 0 0 1-6.607 3.105 10.491 10.491 0 0 1-4.952-1.295 82.257 82.257 0 0 1-4.58-2.59 7.29 7.29 0 0 0-3.669-1.295 2.854 2.854 0 0 0-2.326 1.199 15.083 15.083 0 0 0-1.858 4.472z" class="cls-1" style="stroke-width:1.199"/><path id="path22" d="M1716.24 460.665a23.5 23.5 0 0 1-11.905-3.022 22.481 22.481 0 0 1-8.321-8.237 24.136 24.136 0 0 1 0-23.56 22.481 22.481 0 0 1 8.32-8.237 24.735 24.735 0 0 1 23.693 0 22.59 22.59 0 0 1 11.342 20.011 22.913 22.913 0 0 1-3.057 11.786 22.65 22.65 0 0 1-8.285 8.237 23.117 23.117 0 0 1-11.786 3.022zm-.083-11.654a8.645 8.645 0 0 0 5.012-1.463 9.76 9.76 0 0 0 3.357-4.053 13.765 13.765 0 0 0 1.199-5.875 13.609 13.609 0 0 0-1.2-5.899 9.796 9.796 0 0 0-3.357-4.017 8.645 8.645 0 0 0-5.011-1.462 8.74 8.74 0 0 0-4.964 1.462 9.724 9.724 0 0 0-3.405 4.017 13.405 13.405 0 0 0-1.2 5.815 13.992 13.992 0 0 0 1.2 5.995 9.676 9.676 0 0 0 3.405 4.053 8.74 8.74 0 0 0 5.048 1.427z" class="cls-1" style="stroke-width:1.199"/><circle id="circle24" cx="237.596" cy="30.468" r="18.927" class="cls-3" style="stroke-width:1.06632"/><circle id="circle25" cx="102.249" cy="123.543" r="23.779" class="cls-4" style="stroke-width:1.06632"/><circle id="circle26" cx="83.429" cy="301.298" r="24.141" class="cls-5" style="stroke-width:1.06632"/><circle id="circle27" cx="140.285" cy="420.065" r="17.658" class="cls-3" style="stroke-width:1.06632"/><path id="path27" d="M215.648 27.9a34.149 21.646 0 0 1 0-2.495h-79.887c0 .416.101.832.101 1.248 0 .416 0 .831-.101 1.247z" class="cls-2" style="stroke-width:1.33931"/><circle id="circle28" cx="110.268" cy="24.109" r="24.109" class="cls-5" style="stroke-width:1.06632"/><circle id="circle29" cx="17.85" cy="189.857" r="17.85" class="cls-3" style="stroke-width:1.06632"/><circle id="circle30" cx="44.689" cy="385.367" r="23.107" class="cls-4" style="stroke-width:1.06632"/><circle id="circle31" cx="133.674" cy="510.361" r="24.621" class="cls-5" style="stroke-width:1.06632"/><path id="path58" d="m105.363 96.895 4.265-46.028c-.831 0-1.663-.05-2.484-.12l-4.265 46.02c.82.016 1.62.056 2.484.128z" class="cls-2" style="stroke-width:.924386"/><path id="path59" d="m121.974 104.722 98.66-59.904a28.123 15.796 0 0 1-2.422-1.28l-98.688 59.912c.855.409 1.666.832 2.45 1.272z" class="cls-2" style="stroke-width:1.06774"/><path id="path60" d="m34.218 178.576 47.75-37.503a22.723 22.723 0 0 1-1.546-1.962l-47.75 37.513a18.554 18.554 0 0 1 1.546 1.952z" class="cls-2" style="stroke-width:1.06632"/><path id="path61" d="m70.92 277.562-41.927-71.24-.277.191a18.32 18.32 0 0 1-1.866 1.066l41.928 71.263a30.72 30.72 0 0 1 2.143-1.28z" class="cls-2" style="stroke-width:1.06632"/><path id="path62" d="M56.323 361.194c.245.117.47.255.704.383l16.325-35.423a25.673 25.673 0 0 1-2.26-1.066l-16.326 35.444c.512.203 1.035.406 1.557.662z" class="cls-2" style="stroke-width:1.06632"/><path id="path63" d="M122.627 412.345 70.28 393.332c-.245.79-.533 1.568-.853 2.336l52.388 19.023a18.65 18.65 0 0 1 .81-2.346z" class="cls-2" style="stroke-width:1.06632"/><path id="path64" d="m133.12 402.215-36.991-77.287c-.736.384-1.482.757-2.25 1.066l36.99 77.276a17.285 17.285 0 0 1 2.25-1.055z" class="cls-2" style="stroke-width:1.06632"/><path id="path65" d="m136.873 483.756 3.199-44.455a17.584 17.584 0 0 1-2.485-.17l-3.23 44.444c.863.021 1.695.085 2.516.181z" class="cls-2" style="stroke-width:1.06632"/><path id="path66" d="m224.966 430.37-71.501 61.448c.668.757 1.285 1.554 1.915 2.378l71.976-61.886c-.77-.638-1.58-1.289-2.39-1.94z" class="cls-2" style="stroke-width:1.30663"/><circle id="path12-9-5" cx="241.92" cy="287.98" r="24.748" style="clip-rule:evenodd;fill:url(#linearGradient42);fill-rule:evenodd;stroke:#bec128;stroke-width:1.37321;stroke-opacity:1;image-rendering:optimizeQuality;shape-rendering:geometricPrecision;text-rendering:geometricPrecision"/><path id="path2-7" fill="#8ab6b3" d="M598.252 139.58c1.51 2.44 2.656 5.187 3.433 8.24 1.143 71.18.914 142.13-.686 212.847.23-70.492 0-140.984-.687-211.474a24.385 24.385 0 0 1-2.06-9.612z" style="clip-rule:evenodd;fill-rule:evenodd;stroke-width:1.37321;image-rendering:optimizeQuality;shape-rendering:geometricPrecision;text-rendering:geometricPrecision"/><path id="path3-1" fill="#0f6f67" d="M598.252 139.58a24.385 24.385 0 0 0 2.06 9.613c.687 70.49.916 140.982.687 211.474-2.074 15.103-8.94 27.69-20.598 37.763L410.123 504.167c-20.598 11.902-41.196 11.902-61.794 0L183.544 402.55c-14.553-8.736-23.935-21.325-28.15-37.763-.917-72.78-.917-145.56 0-218.34 4.332-14.41 12.8-25.624 25.403-33.644A9853.336 9853.336 0 0 0 348.33 9.813c18.993-11.298 38.217-11.755 57.674-1.373l175.77 108.483c7.953 5.873 13.446 13.426 16.48 22.658z" style="clip-rule:evenodd;fill:url(#linearGradient19-4);fill-rule:evenodd;stroke-width:1.37321;image-rendering:optimizeQuality;shape-rendering:geometricPrecision;text-rendering:geometricPrecision"/><path id="path4-5" d="M368.927 20.112c11.266-1.426 21.794.634 31.584 6.18a15894.829 15894.829 0 0 0 168.904 104.363c6.608 5.218 10.957 11.856 13.045 19.911.916 70.034.916 140.068 0 210.101-1.47 10.04-6.276 18.05-14.418 24.031a15379.595 15379.595 0 0 0-166.158 102.99c-17.046 8.9-33.524 7.985-49.436-2.746a8323.139 8323.139 0 0 0-153.799-94.751c-7.901-4.289-14.538-10.01-19.911-17.165l-4.12-12.359a8247.755 8247.755 0 0 1 0-212.847c4.733-9.769 11.829-17.322 21.285-22.658a17496.788 17496.788 0 0 1 173.024-105.05Z" style="clip-rule:evenodd;fill:url(#linearGradient43);fill-rule:evenodd;stroke:none;stroke-width:1.37321;image-rendering:optimizeQuality;shape-rendering:geometricPrecision;text-rendering:geometricPrecision"/><path id="path5-7" fill="#a4dcb9" d="M506.247 254.93c.974 1.242 2.347 1.699 4.12 1.373.45 13.524-.008 26.797-1.373 39.823-15.45-21.733-35.59-37.983-60.421-48.749 12.355-4.653 25.17-6.941 38.45-6.866 3.69 8.479 10.1 13.285 19.224 14.42z" style="clip-rule:evenodd;fill-rule:evenodd;stroke-width:1.37321;image-rendering:optimizeQuality;shape-rendering:geometricPrecision;text-rendering:geometricPrecision"/><path id="path6-1" fill="#2fb586" d="M271.43 219.227c26.152 2.119 52.243 6.009 78.272 11.672a299.094 299.094 0 0 1 50.809 14.419c-39.443 16.849-74.003 40.65-103.678 71.406a613.328 613.328 0 0 0-21.284 27.465c-15.182-18.731-24.108-40.245-26.778-64.541a660.442 660.442 0 0 1-.686-42.57c11.232-1.695 19.013-7.647 23.344-17.851z" style="clip-rule:evenodd;fill-rule:evenodd;stroke-width:1.37321;image-rendering:optimizeQuality;shape-rendering:geometricPrecision;text-rendering:geometricPrecision"/><path id="path8-2" fill="#0a6f68" d="M355.195 114.863c2.1 5.312 5.304 9.89 9.612 13.732a6.773 6.773 0 0 0-4.12.687 2187.87 2187.87 0 0 1-85.138 74.84c51.352 3.678 101.245 14.207 149.68 31.583a274.315 274.315 0 0 1 61.794-13.732l4.12-5.493a323345.58 323345.58 0 0 0-98.872-89.258c4.189-2.815 7.392-6.476 9.613-10.986a3063.464 3063.464 0 0 1 100.244 89.945c12.22-2.38 22.52 1.054 30.897 10.3 7.267 15.252 3.834 27.382-10.299 36.39a43.693 43.693 0 0 1-16.479 2.06c-9.124-1.135-15.533-5.941-19.224-14.42-13.28-.075-26.095 2.213-38.45 6.867 24.83 10.765 44.97 27.015 60.42 48.748 7.431 14.63 7.202 29.277-.686 43.943-37.462 53.853-88.957 76.97-154.485 69.347-64.787-15.351-104.84-55.403-120.156-120.156-2.902-18.847-2.672-37.613.687-56.301a38.738 38.738 0 0 0 13.732 4.12c-.23 14.197 0 28.386.686 42.569 2.67 24.296 11.596 45.81 26.778 64.54a613.328 613.328 0 0 1 21.284-27.464c29.675-30.755 64.235-54.557 103.678-71.406a299.094 299.094 0 0 0-50.81-14.419c-26.028-5.663-52.12-9.553-78.272-11.672 3.41-10.643 1.12-19.798-6.866-27.464a3566.914 3566.914 0 0 1 90.632-76.9z" style="clip-rule:evenodd;fill:url(#linearGradient44);fill-rule:evenodd;stroke-width:1.37321;image-rendering:optimizeQuality;shape-rendering:geometricPrecision;text-rendering:geometricPrecision"/><path id="path9-2" fill="#a2dbb8" d="M422.482 254.93c24.192 7.932 45.476 20.75 63.854 38.45a189.36 189.36 0 0 1 12.359 17.852 22.304 22.304 0 0 1 0 10.985c-28.32 51.596-72.034 75.627-131.141 72.094-30.428-3.43-56.748-15.56-78.96-36.39-.916-1.374-.916-2.747 0-4.12 22.146-34.051 51.213-60.37 87.199-78.96a611.265 611.265 0 0 1 46.689-19.91z" style="clip-rule:evenodd;fill-rule:evenodd;stroke-width:1.37321;image-rendering:optimizeQuality;shape-rendering:geometricPrecision;text-rendering:geometricPrecision"/><path id="path10-1" fill="#2fb686" d="M392.271 127.222c32.894 29.683 65.851 59.436 98.871 89.258l-4.12 5.493a274.315 274.315 0 0 0-61.794 13.732c-48.434-17.376-98.327-27.905-149.68-31.584a2187.87 2187.87 0 0 0 85.14-74.84 6.773 6.773 0 0 1 4.12-.686c9.373 3.915 18.528 3.456 27.463-1.373z" style="clip-rule:evenodd;fill-rule:evenodd;stroke-width:1.37321;image-rendering:optimizeQuality;shape-rendering:geometricPrecision;text-rendering:geometricPrecision"/><circle id="circle57" cx="249.485" cy="212.436" r="24.748" class="cls-5" style="clip-rule:evenodd;fill:#eb6132;fill-rule:evenodd;stroke-width:1.37321;image-rendering:optimizeQuality;shape-rendering:geometricPrecision;text-rendering:geometricPrecision"/><ellipse id="circle45" cx="513.234" cy="233.166" class="cls-3" rx="27.154" ry="26.81" style="clip-rule:evenodd;fill:#056734;fill-opacity:1;fill-rule:evenodd;stroke-width:1.49715;image-rendering:optimizeQuality;shape-rendering:geometricPrecision;text-rendering:geometricPrecision"/><circle id="circle57-5-6" cx="378.741" cy="109.871" r="24.748" class="cls-5" style="clip-rule:evenodd;fill:#bec128;fill-opacity:1;fill-rule:evenodd;stroke-width:1.37321;image-rendering:optimizeQuality;shape-rendering:geometricPrecision;text-rendering:geometricPrecision"/><circle id="circle1" cx="-521.73" cy="30.507" r="18.927" class="cls-3" style="clip-rule:evenodd;fill-rule:evenodd;stroke-width:1.06632;image-rendering:optimizeQuality;shape-rendering:geometricPrecision;text-rendering:geometricPrecision" transform="scale(-1 1)"/><circle id="circle2" cx="-657.077" cy="123.582" r="23.779" class="cls-4" style="clip-rule:evenodd;fill-rule:evenodd;stroke-width:1.06632;image-rendering:optimizeQuality;shape-rendering:geometricPrecision;text-rendering:geometricPrecision" transform="scale(-1 1)"/><circle id="circle3" cx="-675.898" cy="301.338" r="24.142" class="cls-5" style="clip-rule:evenodd;fill-rule:evenodd;stroke-width:1.06632;image-rendering:optimizeQuality;shape-rendering:geometricPrecision;text-rendering:geometricPrecision" transform="scale(-1 1)"/><circle id="circle4" cx="-619.041" cy="420.105" r="17.658" class="cls-3" style="clip-rule:evenodd;fill-rule:evenodd;stroke-width:1.06632;image-rendering:optimizeQuality;shape-rendering:geometricPrecision;text-rendering:geometricPrecision" transform="scale(-1 1)"/><path id="path23" d="M543.678 27.94a34.149 21.646 0 0 0 0-2.496h79.888c0 .416-.102.832-.102 1.248 0 .416 0 .832.102 1.248z" class="cls-2" style="clip-rule:evenodd;fill-rule:evenodd;stroke-width:1.33931;image-rendering:optimizeQuality;shape-rendering:geometricPrecision;text-rendering:geometricPrecision"/><circle id="circle23" cx="-649.058" cy="24.149" r="24.11" class="cls-5" style="clip-rule:evenodd;fill-rule:evenodd;stroke-width:1.06632;image-rendering:optimizeQuality;shape-rendering:geometricPrecision;text-rendering:geometricPrecision" transform="scale(-1 1)"/><circle id="circle32" cx="-741.476" cy="189.897" r="17.85" class="cls-3" style="clip-rule:evenodd;fill-rule:evenodd;stroke-width:1.06632;image-rendering:optimizeQuality;shape-rendering:geometricPrecision;text-rendering:geometricPrecision" transform="scale(-1 1)"/><circle id="circle33" cx="-714.637" cy="385.407" r="23.107" class="cls-4" style="clip-rule:evenodd;fill-rule:evenodd;stroke-width:1.06632;image-rendering:optimizeQuality;shape-rendering:geometricPrecision;text-rendering:geometricPrecision" transform="scale(-1 1)"/><circle id="circle34" cx="-625.653" cy="510.401" r="24.621" class="cls-5" style="clip-rule:evenodd;fill-rule:evenodd;stroke-width:1.06632;image-rendering:optimizeQuality;shape-rendering:geometricPrecision;text-rendering:geometricPrecision" transform="scale(-1 1)"/><path id="path34" d="m653.963 96.935-4.265-46.029c.832 0 1.664-.049 2.485-.12l4.265 46.02a38.04 38.04 0 0 0-2.485.129z" class="cls-2" style="clip-rule:evenodd;fill-rule:evenodd;stroke-width:.924389;image-rendering:optimizeQuality;shape-rendering:geometricPrecision;text-rendering:geometricPrecision"/><path id="path35" d="m637.352 104.762-98.66-59.904a28.123 15.797 0 0 0 2.422-1.28l98.689 59.912c-.856.408-1.667.831-2.45 1.272z" class="cls-2" style="clip-rule:evenodd;fill-rule:evenodd;stroke-width:1.06774;image-rendering:optimizeQuality;shape-rendering:geometricPrecision;text-rendering:geometricPrecision"/><path id="path36" d="m725.108 178.615-47.75-37.502a22.723 22.723 0 0 0 1.547-1.962l47.75 37.513a18.554 18.554 0 0 0-1.547 1.951z" class="cls-2" style="clip-rule:evenodd;fill-rule:evenodd;stroke-width:1.06632;image-rendering:optimizeQuality;shape-rendering:geometricPrecision;text-rendering:geometricPrecision"/><path id="path37" d="m688.406 277.602 41.927-71.241.278.192a18.32 18.32 0 0 0 1.866 1.066l-41.928 71.263a30.715 30.715 0 0 0-2.143-1.28z" class="cls-2" style="clip-rule:evenodd;fill-rule:evenodd;stroke-width:1.06632;image-rendering:optimizeQuality;shape-rendering:geometricPrecision;text-rendering:geometricPrecision"/><path id="path38" d="M703.004 361.234c-.246.117-.47.256-.704.384l-16.326-35.424c.768-.32 1.525-.672 2.261-1.066l16.325 35.445c-.511.202-1.034.405-1.556.66z" class="cls-2" style="clip-rule:evenodd;fill-rule:evenodd;stroke-width:1.06632;image-rendering:optimizeQuality;shape-rendering:geometricPrecision;text-rendering:geometricPrecision"/><path id="path39" d="m636.7 412.385 52.345-19.012c.246.789.534 1.567.853 2.335L637.51 414.73a18.65 18.65 0 0 0-.81-2.346z" class="cls-2" style="clip-rule:evenodd;fill-rule:evenodd;stroke-width:1.06632;image-rendering:optimizeQuality;shape-rendering:geometricPrecision;text-rendering:geometricPrecision"/><path id="path40" d="m626.207 402.255 36.99-77.287c.737.384 1.483.757 2.25 1.066l-36.99 77.277a17.285 17.285 0 0 0-2.25-1.056z" class="cls-2" style="clip-rule:evenodd;fill-rule:evenodd;stroke-width:1.06632;image-rendering:optimizeQuality;shape-rendering:geometricPrecision;text-rendering:geometricPrecision"/><path id="path41" d="m622.454 483.797-3.2-44.455a17.584 17.584 0 0 0 2.485-.17l3.231 44.443c-.864.022-1.695.086-2.516.182z" class="cls-2" style="clip-rule:evenodd;fill-rule:evenodd;stroke-width:1.06632;image-rendering:optimizeQuality;shape-rendering:geometricPrecision;text-rendering:geometricPrecision"/><path id="path42" d="m534.36 430.41 71.502 61.448c-.669.757-1.285 1.555-1.916 2.378L531.97 432.35c.77-.638 1.581-1.288 2.39-1.94z" class="cls-2" style="clip-rule:evenodd;fill-rule:evenodd;stroke-width:1.30663;image-rendering:optimizeQuality;shape-rendering:geometricPrecision;text-rendering:geometricPrecision"/><path id="path24" d="M1749.137 136.384h-77.29v179.155h-51.938V136.385h-77.134v-46.53h206.36z" style="font-size:316.575px;font-family:PettyDespotNFW01-Regular;-inkscape-font-specification:PettyDespotNFW01-Regular;fill:#393234;stroke-width:.118715"/><path id="path3" d="M1519.897 315.539h-186.42V89.856h186.42v46.528h-134.482v39.88h94.292v46.529h-94.292v46.218h134.482z" style="font-size:316.575px;font-family:PettyDespotNFW01-Regular;-inkscape-font-specification:PettyDespotNFW01-Regular;fill:#393234;stroke-width:.118715"/><path id="path2" d="m1167.46 315.539-77.134-225.683h60.44l50.392 155.04 49-155.04h60.44l-77.906 225.683z" style="font-size:316.575px;font-family:PettyDespotNFW01-Regular;-inkscape-font-specification:PettyDespotNFW01-Regular;fill:#393234;stroke-width:.118715"/><path id="path1" d="M1067.603 315.539h-51.938V89.856h51.938z" style="font-size:316.575px;font-family:PettyDespotNFW01-Regular;-inkscape-font-specification:PettyDespotNFW01-Regular;fill:#393234;stroke-width:.118715"/><path id="text44" d="M992.788 248.143q0 12.83-4.174 23.342-4.174 10.665-11.284 18.858-7.11 8.347-16.695 14.376-9.583 6.028-20.404 9.893-10.82 4.019-22.26 6.028-11.592 1.855-22.722 1.855-20.713 0-38.8-5.256-18.084-5.41-31.687-14.994-15.458-10.975-24.27-25.97-8.964-14.993-8.964-33.233 0-2.164.154-4.637.155-2.473.464-4.792h57.657q.619 8.656 4.638 16.076 3.864 7.42 10.047 12.83 6.183 5.41 14.067 8.502 7.883 3.09 16.694 3.09 5.565 0 12.676-1.081 6.956-1.082 13.293-4.02 6.183-2.781 10.51-7.728 4.175-4.792 4.175-12.211 0-4.638-2.782-8.347-2.937-3.556-7.42-6.338-4.483-2.783-10.048-4.792-5.564-1.855-10.975-3.246-5.41-1.237-10.047-2.01-4.792-.618-7.574-.927-10.203-1.082-20.714-2.937-10.511-1.855-20.25-5.101-9.893-3.246-18.55-8.193-8.81-4.946-15.302-12.057-6.492-7.11-10.202-16.694-3.865-9.584-3.865-22.105 0-16.85 8.193-30.452t22.723-23.65q12.52-8.347 28.906-13.14 16.385-4.636 35.707-4.636 19.786 0 36.017 4.637 16.23 4.792 28.288 13.139 14.53 10.048 22.413 23.96 7.73 13.912 7.73 30.142v11.748h-51.63q-1.855-7.42-5.72-14.066-3.863-6.493-9.43-11.44-5.563-4.791-12.52-7.574-7.11-2.782-15.148-2.782-5.41 0-12.211.773-6.802.773-12.83 2.937-6.03 2.319-10.048 6.183-4.173 4.019-4.173 10.357 0 4.173 2.318 7.11 2.164 3.092 5.874 5.256 3.556 2.319 8.193 3.71 4.483 1.546 8.965 2.473 4.483.928 8.657 1.39 4.019.62 6.8.929 10.667 1.236 22.106 3.555 11.284 2.473 22.104 6.338 10.82 4.019 20.56 9.738 9.583 5.874 17.003 13.757 7.265 7.884 11.593 18.086z" style="font-size:316.575px;font-family:PettyDespotNFW01-Regular;-inkscape-font-specification:PettyDespotNFW01-Regular;fill:#393234;stroke-width:.118715"/></svg>