<svg viewBox="0 0 841.9 595.3"><defs><linearGradient xlink:href="#a" id="d" x1="44.979" x2="82.024" y1="210.562" y2="210.562" gradientTransform="translate(7.51 5.006)" gradientUnits="userSpaceOnUse"/><linearGradient id="a"><stop offset="0" style="stop-color:#bec128;stop-opacity:1"/></linearGradient><linearGradient xlink:href="#b" id="e" x1="7.5" x2="332.563" y1="193.035" y2="193.035" gradientUnits="userSpaceOnUse"/><linearGradient id="b"><stop offset="0" style="stop-color:#056734;stop-opacity:1"/></linearGradient><linearGradient xlink:href="#c" id="f" x1="21.5" x2="319.5" y1="192.795" y2="192.795" gradientUnits="userSpaceOnUse"/><linearGradient id="c"><stop offset="0" style="stop-color:#31ad68;stop-opacity:1"/></linearGradient><linearGradient xlink:href="#b" id="h" x1="63.531" x2="285.696" y1="197.266" y2="197.266" gradientUnits="userSpaceOnUse"/><linearGradient xlink:href="#c" id="g" x1="21.5" x2="319.5" y1="192.795" y2="192.795" gradientUnits="userSpaceOnUse"/><linearGradient xlink:href="#b" id="i" x1="63.531" x2="285.696" y1="197.266" y2="197.266" gradientUnits="userSpaceOnUse"/></defs><g transform="translate(88.232 -26.214) scale(.93447)"><circle cx="222.819" cy="124.274" r="17.75" class="cls-3" style="fill:#982f15"/><circle cx="95.89" cy="211.56" r="22.3" class="cls-4" style="fill:#009777"/><circle cx="78.24" cy="378.26" r="22.64" class="cls-5" style="fill:#eb6132"/><circle cx="131.56" cy="489.64" r="16.56" class="cls-3" style="fill:#982f15"/><path d="M202.236 121.866a32.025 20.3 0 0 1 0-2.34h-74.919c0 .39.095.78.095 1.17 0 .39 0 .78-.095 1.17z" class="cls-2" style="fill:#585857;stroke-width:1.25601"/><circle cx="103.41" cy="118.311" r="22.61" class="cls-5" style="fill:#eb6132"/><circle cx="16.74" cy="273.75" r="16.74" class="cls-3" style="fill:#982f15"/><circle cx="41.91" cy="457.1" r="21.67" class="cls-4" style="fill:#009777"/><circle cx="125.36" cy="574.32" r="23.09" class="cls-5" style="fill:#eb6132"/><path d="m98.81 186.57 4-43.166c-.78 0-1.56-.046-2.33-.113l-4 43.159c.77.015 1.52.052 2.33.12z" class="cls-2" style="fill:#585857;stroke-width:.866894"/><path d="m114.388 193.91 92.523-56.178a26.374 14.814 0 0 1-2.271-1.2l-92.55 56.185c.802.383 1.563.78 2.298 1.193z" class="cls-2" style="fill:#585857;stroke-width:1.00133"/><path d="M32.09 263.17 76.87 228a21.31 21.31 0 0 1-1.45-1.84l-44.78 35.18a17.4 17.4 0 0 1 1.45 1.83zM66.51 356l-39.32-66.81-.26.18a17.18 17.18 0 0 1-1.75 1L64.5 357.2c.65-.43 1.32-.82 2.01-1.2zM52.82 434.43c.23.11.44.24.66.36l15.31-33.22c-.72-.3-1.43-.63-2.12-1l-15.31 33.24c.48.19.97.38 1.46.62zM115 482.4l-49.09-17.83c-.23.74-.5 1.47-.8 2.19l49.13 17.84a17.49 17.49 0 0 1 .76-2.2zM124.84 472.9l-34.69-72.48c-.69.36-1.39.71-2.11 1l34.69 72.47a16.21 16.21 0 0 1 2.11-.99zM128.36 549.37l3-41.69a16.49 16.49 0 0 1-2.33-.16L126 549.2c.81.02 1.59.08 2.36.17z" class="cls-2" style="fill:#585857"/><path d="M210.974 499.304 143.92 556.93c.627.71 1.205 1.458 1.796 2.23l67.5-58.037c-.723-.598-1.483-1.208-2.242-1.819z" class="cls-2" style="fill:#585857;stroke-width:1.22536"/></g><g style="clip-rule:evenodd;fill-rule:evenodd;image-rendering:optimizeQuality;shape-rendering:geometricPrecision;text-rendering:geometricPrecision" transform="translate(214.783 56.171) scale(1.20341)"><circle cx="71.011" cy="215.568" r="18.022" style="clip-rule:evenodd;fill:url(#d);fill-rule:evenodd;stroke:#bec128;stroke-opacity:1;image-rendering:optimizeQuality;shape-rendering:geometricPrecision;text-rendering:geometricPrecision"/><path fill="#8ab6b3" d="M330.5 107.5c1.1 1.777 1.934 3.777 2.5 6 .832 51.835.665 103.502-.5 155 .167-51.334 0-102.668-.5-154a17.758 17.758 0 0 1-1.5-7z" style="opacity:1"/><path fill="#0f6f67" d="M330.5 107.5c.023 2.427.523 4.76 1.5 7 .5 51.332.667 102.666.5 154-1.51 10.998-6.51 20.164-15 27.5l-124 77c-15 8.667-30 8.667-45 0l-120-74c-10.598-6.362-17.43-15.529-20.5-27.5-.667-53-.667-106 0-159 3.155-10.493 9.322-18.66 18.5-24.5a7175.42 7175.42 0 0 0 122-75c13.831-8.227 27.831-8.56 42-1l128 79c5.791 4.277 9.791 9.777 12 16.5z" style="clip-rule:evenodd;opacity:1;fill:url(#e);fill-rule:evenodd;image-rendering:optimizeQuality;shape-rendering:geometricPrecision;text-rendering:geometricPrecision"/><g style="fill:url(#f);stroke:none"><path d="M163.5 20.5c8.204-1.038 15.871.462 23 4.5a11574.97 11574.97 0 0 0 123 76c4.812 3.8 7.979 8.634 9.5 14.5.667 51 .667 102 0 153-1.071 7.311-4.571 13.144-10.5 17.5a11199.765 11199.765 0 0 0-121 75c-12.413 6.481-24.413 5.814-36-2a6061.096 6061.096 0 0 0-112-69c-5.754-3.123-10.587-7.289-14.5-12.5l-3-9a6006.2 6006.2 0 0 1 0-155c3.447-7.114 8.614-12.614 15.5-16.5 41.93-25.79 83.93-51.29 126-76.5z" style="opacity:1;fill:url(#g);stroke:none"/></g><path fill="#a4dcb9" d="M263.5 191.5c.709.904 1.709 1.237 3 1 .327 9.848-.006 19.514-1 29-11.251-15.827-25.918-27.66-44-35.5 8.997-3.389 18.33-5.055 28-5 2.688 6.174 7.355 9.674 14 10.5z" style="opacity:1"/><path fill="#2fb586" d="M92.5 165.5c19.045 1.543 38.045 4.376 57 8.5a217.807 217.807 0 0 1 37 10.5c-28.723 12.27-53.89 29.603-75.5 52a446.639 446.639 0 0 0-15.5 20c-11.056-13.64-17.556-29.307-19.5-47a480.949 480.949 0 0 1-.5-31c8.18-1.235 13.846-5.569 17-13z" style="opacity:1"/><g style="fill:url(#h)"><path fill="#0a6f68" d="M153.5 89.5c1.529 3.868 3.863 7.202 7 10a4.932 4.932 0 0 0-3 .5 1593.256 1593.256 0 0 1-62 54.5c37.396 2.679 73.729 10.346 109 23a199.762 199.762 0 0 1 45-10l3-4a235467.49 235467.49 0 0 0-72-65c3.05-2.05 5.383-4.716 7-8a2230.883 2230.883 0 0 1 73 65.5c8.899-1.733 16.399.767 22.5 7.5 5.292 11.107 2.792 19.941-7.5 26.5a31.818 31.818 0 0 1-12 1.5c-6.645-.826-11.312-4.326-14-10.5-9.67-.055-19.003 1.611-28 5 18.082 7.84 32.749 19.673 44 35.5 5.411 10.653 5.244 21.32-.5 32-27.281 39.217-64.781 56.051-112.5 50.5-47.179-11.179-76.346-40.346-87.5-87.5-2.113-13.725-1.946-27.391.5-41a28.21 28.21 0 0 0 10 3c-.167 10.339 0 20.672.5 31 1.944 17.693 8.444 33.36 19.5 47a446.639 446.639 0 0 1 15.5-20c21.61-22.397 46.777-39.73 75.5-52a217.807 217.807 0 0 0-37-10.5c-18.955-4.124-37.955-6.957-57-8.5 2.483-7.75.816-14.417-5-20a2597.507 2597.507 0 0 1 66-56z" style="opacity:1;fill:url(#i)"/></g><path fill="#a2dbb8" d="M202.5 191.5c17.617 5.776 33.117 15.11 46.5 28a137.896 137.896 0 0 1 9 13 16.242 16.242 0 0 1 0 8c-20.623 37.573-52.457 55.073-95.5 52.5-22.158-2.498-41.325-11.331-57.5-26.5-.667-1-.667-2 0-3 16.127-24.797 37.294-43.963 63.5-57.5a445.137 445.137 0 0 1 34-14.5z" style="opacity:1"/><path fill="#2fb686" d="M180.5 98.5c23.954 21.616 47.954 43.283 72 65l-3 4a199.762 199.762 0 0 0-45 10c-35.271-12.654-71.604-20.321-109-23a1593.256 1593.256 0 0 0 62-54.5 4.932 4.932 0 0 1 3-.5c6.826 2.851 13.493 2.517 20-1z" style="opacity:1"/><circle cx="76.52" cy="160.555" r="18.022" class="cls-5" style="fill:#eb6132"/><ellipse cx="268.588" cy="175.651" class="cls-3" rx="19.774" ry="19.524" style="clip-rule:evenodd;fill:#056734;fill-opacity:1;fill-rule:evenodd;stroke-width:1.09026;image-rendering:optimizeQuality;shape-rendering:geometricPrecision;text-rendering:geometricPrecision"/><circle cx="170.647" cy="85.865" r="18.022" class="cls-5" style="clip-rule:evenodd;fill:#bec128;fill-opacity:1;fill-rule:evenodd;image-rendering:optimizeQuality;shape-rendering:geometricPrecision;text-rendering:geometricPrecision"/><g style="clip-rule:evenodd;fill-rule:evenodd;image-rendering:optimizeQuality;shape-rendering:geometricPrecision;text-rendering:geometricPrecision" transform="matrix(-.77652 0 0 .77652 447.798 -68.431)"><circle cx="222.819" cy="124.274" r="17.75" class="cls-3" style="fill:#982f15"/><circle cx="95.89" cy="211.56" r="22.3" class="cls-4" style="fill:#009777"/><circle cx="78.24" cy="378.26" r="22.64" class="cls-5" style="fill:#eb6132"/><circle cx="131.56" cy="489.64" r="16.56" class="cls-3" style="fill:#982f15"/><path d="M202.236 121.866a32.025 20.3 0 0 1 0-2.34h-74.919c0 .39.095.78.095 1.17 0 .39 0 .78-.095 1.17z" class="cls-2" style="fill:#585857;stroke-width:1.25601"/><circle cx="103.41" cy="118.311" r="22.61" class="cls-5" style="fill:#eb6132"/><circle cx="16.74" cy="273.75" r="16.74" class="cls-3" style="fill:#982f15"/><circle cx="41.91" cy="457.1" r="21.67" class="cls-4" style="fill:#009777"/><circle cx="125.36" cy="574.32" r="23.09" class="cls-5" style="fill:#eb6132"/><path d="m98.81 186.57 4-43.166c-.78 0-1.56-.046-2.33-.113l-4 43.159c.77.015 1.52.052 2.33.12z" class="cls-2" style="fill:#585857;stroke-width:.866894"/><path d="m114.388 193.91 92.523-56.178a26.374 14.814 0 0 1-2.271-1.2l-92.55 56.185c.802.383 1.563.78 2.298 1.193z" class="cls-2" style="fill:#585857;stroke-width:1.00133"/><path d="M32.09 263.17 76.87 228a21.31 21.31 0 0 1-1.45-1.84l-44.78 35.18a17.4 17.4 0 0 1 1.45 1.83zM66.51 356l-39.32-66.81-.26.18a17.18 17.18 0 0 1-1.75 1L64.5 357.2c.65-.43 1.32-.82 2.01-1.2zM52.82 434.43c.23.11.44.24.66.36l15.31-33.22c-.72-.3-1.43-.63-2.12-1l-15.31 33.24c.48.19.97.38 1.46.62zM115 482.4l-49.09-17.83c-.23.74-.5 1.47-.8 2.19l49.13 17.84a17.49 17.49 0 0 1 .76-2.2zM124.84 472.9l-34.69-72.48c-.69.36-1.39.71-2.11 1l34.69 72.47a16.21 16.21 0 0 1 2.11-.99zM128.36 549.37l3-41.69a16.49 16.49 0 0 1-2.33-.16L126 549.2c.81.02 1.59.08 2.36.17z" class="cls-2" style="fill:#585857"/><path d="M210.974 499.304 143.92 556.93c.627.71 1.205 1.458 1.796 2.23l67.5-58.037c-.723-.598-1.483-1.208-2.242-1.819z" class="cls-2" style="fill:#585857;stroke-width:1.22536"/></g></g></svg>